{
  "accessors": [
    {
      "bufferView": 2,
      "componentType": 5126,
      "count": 2641,
      "max": [
        0.6163514852523804,
        1.5441449880599976,
        2.301464319229126
      ],
      "min": [
        -0.7970020174980164,
        0.021073682233691216,
        -1.5737184286117554
      ],
      "type": "VEC3"
    },
    {
      "bufferView": 2,
      "byteOffset": 31692,
      "componentType": 5126,
      "count": 2641,
      "max": [
        0.9999925494194031,
        0.9998642802238464,
        0.998806893825531
      ],
      "min": [
        -0.9996973872184753,
        -0.9998576045036316,
        -0.999200701713562
      ],
      "type": "VEC3"
    },
    {
      "bufferView": 3,
      "componentType": 5126,
      "count": 2641,
      "max": [
        0.9967987537384033,
        0.9995158910751343,
        0.9996827840805054,
        1.0
      ],
      "min": [
        -0.9987668991088867,
        -0.9991048574447632,
        -0.9961599111557007,
        -1.0
      ],
      "type": "VEC4"
    },
    {
      "bufferView": 1,
      "componentType": 5126,
      "count": 2641,
      "max": [
        0.9999417066574097,
        1.0
      ],
      "min": [
        0.0,
        0.0
      ],
      "type": "VEC2"
    },
    {
      "bufferView": 1,
      "byteOffset": 21128,
      "componentType": 5126,
      "count": 2641,
      "max": [
        0.9999417066574097,
        1.0
      ],
      "min": [
        0.0,
        0.0
      ],
      "type": "VEC2"
    },
    {
      "bufferView": 0,
      "componentType": 5125,
      "count": 13002,
      "type": "SCALAR"
    }
  ],
  "asset": {
    "extras": {
      "author": "JW (https://sketchfab.com/CrossFireJW)",
      "license": "CC-BY-4.0 (http://creativecommons.org/licenses/by/4.0/)",
      "source": "https://sketchfab.com/3d-models/vans-shoe-1585e5837d034631a748d1a86a846782",
      "title": "Vans shoe"
    },
    "generator": "Sketchfab-15.42.0",
    "version": "2.0"
  },
  "bufferViews": [
    {
      "buffer": 0,
      "byteLength": 52008,
      "name": "floatBufferViews",
      "target": 34963
    },
    {
      "buffer": 0,
      "byteLength": 42256,
      "byteOffset": 52008,
      "byteStride": 8,
      "name": "floatBufferViews",
      "target": 34962
    },
    {
      "buffer": 0,
      "byteLength": 63384,
      "byteOffset": 94264,
      "byteStride": 12,
      "name": "floatBufferViews",
      "target": 34962
    },
    {
      "buffer": 0,
      "byteLength": 42256,
      "byteOffset": 157648,
      "byteStride": 16,
      "name": "floatBufferViews",
      "target": 34962
    }
  ],
  "buffers": [
    {
      "byteLength": 199904,
      "uri": "scene.bin"
    }
  ],
  "images": [
    {
      "uri": "textures/VansShoeMaterial_baseColor.jpeg"
    },
    {
      "uri": "textures/VansShoeMaterial_metallicRoughness.png"
    },
    {
      "uri": "textures/VansShoeMaterial_normal.png"
    }
  ],
  "materials": [
    {
      "doubleSided": true,
      "name": "VansShoeMaterial",
      "normalTexture": {
        "index": 2
      },
      "pbrMetallicRoughness": {
        "baseColorTexture": {
          "index": 0
        },
        "metallicRoughnessTexture": {
          "index": 1
        }
      }
    }
  ],
  "meshes": [
    {
      "name": "Shoe_VansShoeMaterial_0",
      "primitives": [
        {
          "attributes": {
            "NORMAL": 1,
            "POSITION": 0,
            "TANGENT": 2,
            "TEXCOORD_0": 3,
            "TEXCOORD_1": 4
          },
          "indices": 5,
          "material": 0,
          "mode": 4
        }
      ]
    }
  ],
  "nodes": [
    {
      "children": [
        1
      ],
      "matrix": [
        0.9388565421104431,
        -0.23377795517444605,
        -0.2527770102024079,
        0.0,
        -0.1586548388004303,
        0.35783308744430564,
        -0.9202087521553038,
        0.0,
        0.30557650327682495,
        0.9040483236312865,
        0.29886394739151023,
        0.0,
        0.0,
        0.0,
        0.0,
        1.0
      ],
      "name": "Sketchfab_model"
    },
    {
      "children": [
        2
      ],
      "matrix": [
        0.009999999776482582,
        0.0,
        0.0,
        0.0,
        0.0,
        0.0,
        0.009999999776482582,
        0.0,
        0.0,
        -0.009999999776482582,
        0.0,
        0.0,
        0.0,
        0.0,
        0.0,
        1.0
      ],
      "name": "8c8cf005886f4690afe3b5e0548544e9.fbx"
    },
    {
      "children": [
        3
      ],
      "name": "RootNode"
    },
    {
      "children": [
        4
      ],
      "name": "Shoe"
    },
    {
      "children": [
        5
      ],
      "matrix": [
        1.0,
        0.0,
        0.0,
        0.0,
        0.0,
        1.0,
        0.0,
        0.0,
        0.0,
        0.0,
        1.0,
        0.0,
        0.0,
        -0.047809574753046036,
        0.0,
        1.0
      ],
      "name": "Shoe"
    },
    {
      "mesh": 0,
      "name": "Shoe_VansShoeMaterial_0"
    }
  ],
  "samplers": [
    {
      "magFilter": 9729,
      "minFilter": 9987,
      "wrapS": 10497,
      "wrapT": 10497
    }
  ],
  "scene": 0,
  "scenes": [
    {
      "name": "Sketchfab_Scene",
      "nodes": [
        0
      ]
    }
  ],
  "textures": [
    {
      "sampler": 0,
      "source": 0
    },
    {
      "sampler": 0,
      "source": 1
    },
    {
      "sampler": 0,
      "source": 2
    }
  ]
}
